<svg width="57" height="50" viewBox="0 0 57 50" fill="none" xmlns="http://www.w3.org/2000/svg">
<path d="M36.0446 33.1173C37.4299 33.1173 38.7584 33.672 39.738 34.6593C40.7175 35.6466 41.2678 36.9857 41.2678 38.382V41.8965L41.2493 42.1492C40.5296 47.126 36.0957 49.5173 28.6555 49.5173C21.2432 49.5173 16.7373 47.1541 15.7646 42.2357L15.7321 41.8918V38.382C15.7321 36.9857 16.2824 35.6466 17.262 34.6593C18.2415 33.672 19.57 33.1173 20.9553 33.1173H36.0446ZM36.0446 36.6271H20.9553C20.4936 36.6271 20.0507 36.812 19.7242 37.1411C19.3977 37.4702 19.2143 37.9166 19.2143 38.382V41.7046C19.8643 44.5124 22.8125 46.0076 28.6555 46.0076C34.4962 46.0076 37.3144 44.5311 37.7857 41.7584V38.382C37.7857 37.9166 37.6023 37.4702 37.2757 37.1411C36.9492 36.812 36.5064 36.6271 36.0446 36.6271ZM38.3521 19.0759L51.1339 19.0782C52.5192 19.0782 53.8477 19.6329 54.8273 20.6202C55.8068 21.6075 56.3571 22.9466 56.3571 24.3429V27.8573L56.3385 28.11C55.6189 33.0869 51.185 35.4782 43.7448 35.4782L43.0135 35.4712C42.3281 33.8056 41.0785 32.4392 39.4873 31.6151C40.6828 31.8491 42.0989 31.9685 43.7448 31.9685C49.5855 31.9685 52.4037 30.492 52.875 27.7193V24.3429C52.875 23.8774 52.6915 23.4311 52.365 23.102C52.0385 22.7729 51.5957 22.588 51.1339 22.588H38.9464C38.9464 21.3572 38.7375 20.1733 38.3521 19.0759ZM5.86604 19.0782L18.6478 19.0759C18.32 20.0106 18.1254 20.9875 18.0698 21.9773L18.0535 22.588H5.86604C5.40428 22.588 4.96143 22.7729 4.63491 23.102C4.3084 23.4311 4.12497 23.8774 4.12497 24.3429V27.6655C4.77497 30.4733 7.72318 31.9685 13.5662 31.9685C15.0101 31.9685 16.2684 31.8772 17.3548 31.6994C15.8353 32.5316 14.6448 33.8637 13.9818 35.4735L13.5639 35.4782C6.15389 35.4782 1.648 33.115 0.675322 28.1966L0.642822 27.8526V24.3429C0.642822 22.9466 1.19312 21.6075 2.17267 20.6202C3.15221 19.6329 4.48075 19.0782 5.86604 19.0782ZM28.5 14.3985C30.6549 14.3985 32.7215 15.2613 34.2452 16.7971C35.7689 18.333 36.625 20.416 36.625 22.588C36.625 24.76 35.7689 26.843 34.2452 28.3788C32.7215 29.9146 30.6549 30.7775 28.5 30.7775C26.3451 30.7775 24.2785 29.9146 22.7547 28.3788C21.231 26.843 20.375 24.76 20.375 22.588C20.375 20.416 21.231 18.333 22.7547 16.7971C24.2785 15.2613 26.3451 14.3985 28.5 14.3985ZM28.5 17.9083C27.2686 17.9083 26.0877 18.4013 25.217 19.2789C24.3463 20.1565 23.8571 21.3468 23.8571 22.588C23.8571 23.8291 24.3463 25.0194 25.217 25.897C26.0877 26.7746 27.2686 27.2677 28.5 27.2677C29.7313 27.2677 30.9123 26.7746 31.783 25.897C32.6537 25.0194 33.1428 23.8291 33.1428 22.588C33.1428 21.3468 32.6537 20.1565 31.783 19.2789C30.9123 18.4013 29.7313 17.9083 28.5 17.9083ZM43.5893 0.359375C45.7441 0.359375 47.8108 1.22219 49.3345 2.75802C50.8582 4.29385 51.7143 6.37687 51.7143 8.54886C51.7143 10.7208 50.8582 12.8039 49.3345 14.3397C47.8108 15.8755 45.7441 16.7383 43.5893 16.7383C41.4344 16.7383 39.3677 15.8755 37.844 14.3397C36.3203 12.8039 35.4643 10.7208 35.4643 8.54886C35.4643 6.37687 36.3203 4.29385 37.844 2.75802C39.3677 1.22219 41.4344 0.359375 43.5893 0.359375ZM13.4107 0.359375C15.5656 0.359375 17.6322 1.22219 19.1559 2.75802C20.6797 4.29385 21.5357 6.37687 21.5357 8.54886C21.5357 10.7208 20.6797 12.8039 19.1559 14.3397C17.6322 15.8755 15.5656 16.7383 13.4107 16.7383C11.2558 16.7383 9.18917 15.8755 7.66544 14.3397C6.14171 12.8039 5.28568 10.7208 5.28568 8.54886C5.28568 6.37687 6.14171 4.29385 7.66544 2.75802C9.18917 1.22219 11.2558 0.359375 13.4107 0.359375ZM43.5893 3.86915C42.3579 3.86915 41.177 4.36219 40.3063 5.23981C39.4356 6.11742 38.9464 7.30773 38.9464 8.54886C38.9464 9.79 39.4356 10.9803 40.3063 11.8579C41.177 12.7355 42.3579 13.2286 43.5893 13.2286C44.8206 13.2286 46.0015 12.7355 46.8723 11.8579C47.743 10.9803 48.2321 9.79 48.2321 8.54886C48.2321 7.30773 47.743 6.11742 46.8723 5.23981C46.0015 4.36219 44.8206 3.86915 43.5893 3.86915ZM13.4107 3.86915C12.1793 3.86915 10.9984 4.36219 10.1277 5.23981C9.25698 6.11742 8.76782 7.30773 8.76782 8.54886C8.76782 9.79 9.25698 10.9803 10.1277 11.8579C10.9984 12.7355 12.1793 13.2286 13.4107 13.2286C14.642 13.2286 15.823 12.7355 16.6937 11.8579C17.5644 10.9803 18.0535 9.79 18.0535 8.54886C18.0535 7.30773 17.5644 6.11742 16.6937 5.23981C15.823 4.36219 14.642 3.86915 13.4107 3.86915Z" fill="#002350"/>
</svg>
