<svg width="65" height="65" viewBox="0 0 65 65" fill="none" xmlns="http://www.w3.org/2000/svg">
<g clip-path="url(#clip0)">
<path d="M56.8749 27.0834C48.0714 27.594 39.6047 30.6457 32.4999 35.8692C25.3951 30.6457 16.9284 27.594 8.12492 27.0834V35.1C6.68593 35.1029 5.30698 35.6771 4.29123 36.6964C3.27549 37.7157 2.7061 39.0967 2.70826 40.5357V43.2548C2.70826 46.2584 8.12492 49.2348 8.12492 49.2348V54.6705C15.3183 55.1331 22.2556 57.5182 28.2126 61.5767C29.7168 62.6205 31.1491 63.7642 32.4999 65C33.8507 63.7642 35.2831 62.6205 36.7872 61.5767C42.7443 57.5182 49.6816 55.1331 56.8749 54.6705V48.6905C58.3139 48.6876 59.6929 48.1134 60.7086 47.0941C61.7244 46.0748 62.2938 44.6938 62.2916 43.2548V40.5357C62.2938 39.0967 61.7244 37.7157 60.7086 36.6964C59.6929 35.6771 58.3139 35.1029 56.8749 35.1V27.0834ZM32.4999 58.018C26.8828 53.9014 20.3976 51.1257 13.5416 49.9038V33.2475C18.796 34.3061 23.7847 36.4076 28.2126 39.428C29.7168 40.4717 31.1491 41.6154 32.4999 42.8513C33.8507 41.6154 35.2831 40.4717 36.7872 39.428C41.2149 36.4067 46.2037 34.3042 51.4583 33.2448V49.9038C44.6022 51.1257 38.1171 53.9014 32.4999 58.018Z" fill="#002350"/>
<path d="M29.7917 21.6666H35.2084V24.375H29.7917V21.6666Z" fill="#002350"/>
<path d="M29.7917 10.8333H35.2084V13.5416H29.7917V10.8333Z" fill="#002350"/>
<path d="M29.7917 27.0834H35.2084V29.7917H29.7917V27.0834Z" fill="#002350"/>
<path d="M24.3751 13.5418C25.0934 13.5418 25.7823 13.2564 26.2902 12.7485C26.7981 12.2406 27.0835 11.5517 27.0835 10.8334C27.086 10.4806 27.0184 10.1308 26.8845 9.80437C26.7507 9.47793 26.5532 9.18135 26.3038 8.93187C26.0543 8.68239 25.7577 8.48498 25.4313 8.35113C25.1048 8.21728 24.755 8.14965 24.4022 8.15217C24.0483 8.15039 23.6976 8.21833 23.3699 8.35211C23.0423 8.4859 22.7442 8.6829 22.4927 8.93188C21.9848 9.43471 21.6975 10.1187 21.6939 10.8334C21.6903 11.5481 21.9708 12.235 22.4736 12.7429C22.9764 13.2508 23.6604 13.5382 24.3751 13.5418Z" fill="#002350"/>
<path d="M40.6251 13.5417C42.1209 13.5417 43.3334 12.3291 43.3334 10.8333C43.3334 9.33756 42.1209 8.125 40.6251 8.125C39.1293 8.125 37.9167 9.33756 37.9167 10.8333C37.9167 12.3291 39.1293 13.5417 40.6251 13.5417Z" fill="#002350"/>
<path d="M43.3334 21.6667H21.6667C19.5125 21.6645 17.4471 20.8078 15.9239 19.2845C14.4006 17.7613 13.5439 15.6959 13.5417 13.5417V8.125C13.5439 5.97078 14.4006 3.9054 15.9239 2.38213C17.4471 0.858866 19.5125 0.002151 21.6667 0L43.3334 0C45.4876 0.002151 47.553 0.858866 49.0763 2.38213C50.5996 3.9054 51.4563 5.97078 51.4584 8.125V13.5417C51.4563 15.6959 50.5996 17.7613 49.0763 19.2845C47.553 20.8078 45.4876 21.6645 43.3334 21.6667ZM21.6667 5.41667C20.9487 5.41738 20.2602 5.70296 19.7525 6.21071C19.2447 6.71847 18.9591 7.40693 18.9584 8.125V13.5417C18.9591 14.2597 19.2447 14.9482 19.7525 15.456C20.2602 15.9637 20.9487 16.2493 21.6667 16.25H43.3334C44.0515 16.2493 44.74 15.9637 45.2477 15.456C45.7555 14.9482 46.041 14.2597 46.0418 13.5417V8.125C46.041 7.40693 45.7555 6.71847 45.2477 6.21071C44.74 5.70296 44.0515 5.41738 43.3334 5.41667H21.6667Z" fill="#002350"/>
</g>
<defs>
<clipPath id="clip0">
<rect width="65" height="65" fill="white"/>
</clipPath>
</defs>
</svg>
