<svg width="176" height="41" viewBox="0 0 176 41" fill="none" xmlns="http://www.w3.org/2000/svg">
<path d="M43.0635 32.6777C43.1816 31.668 43.3428 30.5293 43.5469 29.2617C43.7617 27.9941 44.0088 26.6675 44.2881 25.2817C44.5781 23.8853 44.8896 22.4673 45.2227 21.0278C45.5664 19.5776 45.9263 18.1704 46.3022 16.8062C46.689 15.4312 47.0864 14.1313 47.4946 12.9067C47.9028 11.6821 48.3164 10.5918 48.7354 9.63574L52.4575 9.41016C52.7798 10.0332 53.1235 10.7583 53.4888 11.5854C53.8647 12.4126 54.2515 13.3042 54.6489 14.2603C55.0571 15.2056 55.4707 16.1992 55.8896 17.2412C56.3086 18.2832 56.7222 19.3413 57.1304 20.4155C57.5386 21.479 57.936 22.5371 58.3228 23.5898C58.7095 24.6426 59.0747 25.6577 59.4185 26.6353C59.6333 25.5181 59.8911 24.272 60.1919 22.897C60.4927 21.5112 60.8311 20.0771 61.207 18.5947C61.5938 17.1016 62.0127 15.5923 62.4639 14.0669C62.915 12.5308 63.3984 11.0537 63.9141 9.63574L68.2969 9.41016C68.9414 11.1182 69.6343 13.1162 70.3755 15.4043C71.0093 17.3701 71.729 19.7656 72.5347 22.5908C73.3511 25.416 74.1943 28.6548 75.0645 32.3071L69.457 33.4673C69.4463 33.0161 69.4087 32.4468 69.3442 31.7593C69.2905 31.061 69.21 30.2876 69.1025 29.439C69.0059 28.5903 68.8877 27.6826 68.748 26.7158C68.6084 25.7383 68.4526 24.7393 68.2808 23.7188C68.1196 22.6982 67.937 21.6724 67.7329 20.6411C67.5396 19.5991 67.3301 18.5947 67.1045 17.6279C66.8896 16.6504 66.6587 15.7266 66.4116 14.8564C66.1753 13.9756 65.9336 13.1807 65.6865 12.4717C65.3105 13.5137 64.9561 14.5879 64.623 15.6943C64.29 16.79 63.9785 17.8857 63.6885 18.9814C63.4092 20.0771 63.146 21.1514 62.8989 22.2041C62.6626 23.2568 62.4478 24.2505 62.2544 25.1851C61.8032 27.3872 61.4111 29.541 61.0781 31.6465L57.2432 32.146C57.2432 32.1567 57.1519 31.8882 56.9692 31.3403C56.7974 30.7817 56.5503 30.0352 56.228 29.1006C55.9058 28.1553 55.5244 27.0542 55.084 25.7974C54.6436 24.5405 54.1655 23.2139 53.6499 21.8174C53.1343 20.4209 52.5864 18.9868 52.0063 17.5151C51.437 16.0435 50.8623 14.6255 50.2822 13.2612C49.8311 14.6792 49.4443 16.21 49.1221 17.8535C48.7998 19.4971 48.5259 21.1943 48.3003 22.9453C48.0854 24.6963 47.9082 26.4688 47.7686 28.2627C47.6289 30.0459 47.5215 31.7808 47.4463 33.4673L43.0635 32.6777ZM82.7988 13.9863C82.7988 14.373 82.7236 14.7383 82.5732 15.082C82.4336 15.4258 82.2349 15.7266 81.9771 15.9844C81.7192 16.2422 81.4185 16.4463 81.0747 16.5967C80.731 16.7471 80.3604 16.8223 79.9629 16.8223C79.5654 16.8223 79.1895 16.7471 78.835 16.5967C78.4912 16.4463 78.1904 16.2422 77.9326 15.9844C77.6748 15.7266 77.4707 15.4258 77.3203 15.082C77.1699 14.7383 77.0947 14.373 77.0947 13.9863C77.0947 13.5889 77.1699 13.2183 77.3203 12.8745C77.4707 12.52 77.6748 12.2139 77.9326 11.9561C78.1904 11.6982 78.4912 11.4941 78.835 11.3438C79.1895 11.1934 79.5654 11.1182 79.9629 11.1182C80.3604 11.1182 80.731 11.1934 81.0747 11.3438C81.4185 11.4941 81.7192 11.6982 81.9771 11.9561C82.2349 12.2139 82.4336 12.52 82.5732 12.8745C82.7236 13.2183 82.7988 13.5889 82.7988 13.9863ZM82.251 18.4497L81.0264 33.9507L77.9165 33.6284L77.7231 18.208L82.251 18.4497ZM107.259 17.5957C107.259 18.498 107.055 19.3037 106.646 20.0127C106.249 20.7217 105.712 21.3447 105.035 21.8818C104.369 22.4189 103.596 22.8755 102.715 23.2515C101.845 23.6274 100.942 23.9282 100.008 24.1538L107.259 32.0815L102.215 33.5962L96.8657 24.7178C96.0708 24.7822 95.335 24.8145 94.6582 24.8145C94.0244 24.8145 93.396 24.8037 92.7729 24.7822C92.1499 24.7607 91.5215 24.707 90.8877 24.6211L90.8232 33.1611L86.666 33.1934C86.6875 29.4121 86.6606 25.5986 86.5854 21.7529C86.5103 17.8965 86.4404 14.0776 86.376 10.2964C87.1387 10.1353 87.9443 10.0063 88.793 9.90967C89.6416 9.81299 90.501 9.73779 91.3711 9.68408C92.2412 9.63037 93.106 9.59277 93.9653 9.57129C94.8247 9.5498 95.6465 9.53906 96.4307 9.53906C97.29 9.53906 98.1548 9.60889 99.0249 9.74854C99.895 9.88818 100.728 10.103 101.522 10.3931C102.328 10.6831 103.08 11.0483 103.778 11.4888C104.477 11.9292 105.083 12.4502 105.599 13.0518C106.115 13.6426 106.518 14.3193 106.808 15.082C107.108 15.834 107.259 16.6719 107.259 17.5957ZM93.9653 11.1504C93.4175 11.1504 92.8643 11.1611 92.3057 11.1826C91.7578 11.2041 91.21 11.2471 90.6621 11.3115L90.9199 23.042C91.4248 23.1064 91.9351 23.144 92.4507 23.1548C92.9663 23.1655 93.4927 23.1709 94.0298 23.1709C94.7495 23.1709 95.4639 23.1172 96.1729 23.0098C96.8926 22.9023 97.5747 22.7412 98.2192 22.5264C98.8638 22.3008 99.46 22.0269 100.008 21.7046C100.556 21.3716 101.028 20.9902 101.426 20.5605C101.834 20.1201 102.151 19.626 102.376 19.0781C102.602 18.5303 102.715 17.9341 102.715 17.2896C102.715 16.5376 102.591 15.8662 102.344 15.2754C102.097 14.6738 101.759 14.1475 101.329 13.6963C100.91 13.2344 100.416 12.8477 99.8467 12.5361C99.2773 12.2139 98.6704 11.9507 98.0259 11.7466C97.3813 11.5425 96.71 11.3921 96.0117 11.2954C95.3242 11.1987 94.6421 11.1504 93.9653 11.1504ZM125.982 18.1113L125.016 33.0322L122.18 33.29L122.019 29.6646C121.771 30.2661 121.465 30.8193 121.1 31.3242C120.735 31.8291 120.311 32.2642 119.827 32.6294C119.354 32.9946 118.823 33.2793 118.232 33.4834C117.641 33.6875 117.002 33.7896 116.314 33.7896C115.24 33.7896 114.29 33.5747 113.462 33.145C112.646 32.7261 111.958 32.1406 111.4 31.3887C110.852 30.6367 110.438 29.7451 110.159 28.7139C109.88 27.6719 109.74 26.5386 109.74 25.314C109.74 23.9927 109.837 22.8433 110.03 21.8657C110.224 20.8774 110.444 20.0449 110.691 19.3682C110.97 18.584 111.292 17.9126 111.658 17.354L116.266 17.7568C115.74 18.3906 115.272 19.1479 114.864 20.0288C114.51 20.7808 114.188 21.7153 113.897 22.8325C113.607 23.9497 113.462 25.2388 113.462 26.6997C113.462 27.5806 113.564 28.3379 113.769 28.9717C113.973 29.6055 114.263 30.1318 114.639 30.5508C115.015 30.959 115.466 31.2598 115.992 31.4531C116.529 31.6465 117.131 31.7432 117.797 31.7432C118.366 31.7432 118.871 31.5874 119.312 31.2759C119.752 30.9644 120.139 30.5615 120.472 30.0674C120.805 29.5732 121.084 29.0146 121.31 28.3916C121.546 27.7686 121.739 27.1509 121.89 26.5386L121.551 17.8535L125.982 18.1113ZM135.054 10.522L134.861 17.1284H138.68V18.4819H134.829L134.394 33.0967L131.429 33.3706L131.123 18.4819H127.159V17.1284H131.09L130.994 11.5532L135.054 10.522ZM150.475 32.8066L150.877 31.1147C150.501 31.4478 150.083 31.7485 149.621 32.0171C149.169 32.2856 148.702 32.5166 148.219 32.71C147.735 32.8926 147.252 33.0322 146.769 33.1289C146.296 33.2363 145.861 33.29 145.463 33.29C144.765 33.29 144.045 33.188 143.304 32.9839C142.563 32.7798 141.892 32.4736 141.29 32.0654C140.688 31.6572 140.194 31.147 139.808 30.5347C139.421 29.9224 139.228 29.2134 139.228 28.4077C139.228 27.355 139.41 26.4419 139.775 25.6685C140.141 24.895 140.635 24.2559 141.258 23.751C141.892 23.2461 142.633 22.8755 143.481 22.6392C144.33 22.3921 145.243 22.2686 146.221 22.2686C146.683 22.2686 147.155 22.3062 147.639 22.3813C148.122 22.4565 148.595 22.5693 149.057 22.7197C149.519 22.8701 149.959 23.0688 150.378 23.3159C150.797 23.563 151.173 23.853 151.506 24.186C151.474 23.606 151.393 22.9937 151.264 22.3491C151.146 21.7046 150.953 21.1191 150.684 20.5928C150.426 20.0557 150.077 19.6152 149.637 19.2715C149.196 18.917 148.638 18.7397 147.961 18.7397C146.973 18.7397 146.135 18.9976 145.447 19.5132C144.771 20.0181 144.303 20.7539 144.045 21.7207L139.856 21.2856C140.114 20.6196 140.479 20.0342 140.952 19.5293C141.424 19.0137 141.956 18.584 142.547 18.2402C143.148 17.8965 143.788 17.6387 144.464 17.4668C145.141 17.2842 145.823 17.1929 146.511 17.1929C147.563 17.1929 148.503 17.3433 149.331 17.644C150.168 17.9448 150.904 18.3584 151.538 18.8848C152.172 19.4111 152.709 20.0342 153.149 20.7539C153.59 21.4629 153.95 22.231 154.229 23.0581C154.508 23.8745 154.712 24.7339 154.841 25.6362C154.97 26.5278 155.035 27.4194 155.035 28.311C155.035 29.106 154.992 29.8955 154.906 30.6797C154.82 31.4531 154.696 32.2266 154.535 33L150.475 32.8066ZM151.329 28.2466C151.361 27.9995 151.382 27.7578 151.393 27.5215C151.415 27.2852 151.436 27.0435 151.458 26.7964C151.404 26.2915 151.227 25.8457 150.926 25.459C150.625 25.0615 150.26 24.7285 149.83 24.46C149.4 24.1807 148.933 23.9712 148.428 23.8315C147.923 23.6919 147.429 23.6221 146.946 23.6221C146.387 23.6221 145.866 23.7188 145.383 23.9121C144.899 24.0947 144.48 24.3579 144.126 24.7017C143.771 25.0454 143.492 25.4536 143.288 25.9263C143.084 26.3989 142.982 26.9199 142.982 27.4893C142.982 28.0693 143.068 28.6011 143.24 29.0845C143.422 29.5571 143.675 29.9707 143.997 30.3252C144.319 30.6689 144.711 30.9375 145.173 31.1309C145.646 31.3242 146.172 31.4209 146.752 31.4209C147.268 31.4209 147.773 31.3457 148.267 31.1953C148.761 31.0449 149.212 30.8354 149.621 30.5669C150.04 30.2876 150.394 29.9546 150.684 29.5679C150.985 29.1704 151.2 28.73 151.329 28.2466Z" fill="#002350"/>
<path fill-rule="evenodd" clip-rule="evenodd" d="M33.2502 8.54166C25.9015 8.54166 18.8537 11.4609 13.6574 16.6572C8.46109 21.8536 5.54183 28.9013 5.54183 36.25C5.54183 36.46 5.45842 36.6613 5.30996 36.8098C5.16149 36.9583 4.96013 37.0417 4.75016 37.0417C4.5402 37.0417 4.33884 36.9583 4.19037 36.8098C4.0419 36.6613 3.9585 36.46 3.9585 36.25C3.9585 28.4814 7.04457 21.0309 12.5378 15.5377C18.0311 10.0444 25.4815 6.95833 33.2502 6.95833C33.4601 6.95833 33.6615 7.04174 33.81 7.1902C33.9584 7.33867 34.0418 7.54003 34.0418 7.74999C34.0418 7.95996 33.9584 8.16132 33.81 8.30979C33.6615 8.45825 33.4601 8.54166 33.2502 8.54166Z" fill="#002350"/>
<path fill-rule="evenodd" clip-rule="evenodd" d="M30.3814 15.0682C29.7916 15.1473 29.2073 15.2518 28.6294 15.3801L28.2874 13.834C28.9098 13.6963 29.5376 13.5846 30.1692 13.4991L30.3814 15.0682ZM25.2339 16.4346C24.1331 16.8798 23.0712 17.4161 22.0594 18.0377L21.2313 16.6887C22.3178 16.0211 23.4581 15.4452 24.6402 14.9668L25.2339 16.4346ZM19.1959 20.1451C18.3013 20.9257 17.4733 21.7794 16.7204 22.6975L15.4964 21.6936C16.305 20.7076 17.1942 19.7906 18.1549 18.9521L19.1959 20.1451ZM14.7024 25.6258C14.1124 26.6562 13.6093 27.734 13.1982 28.8479L11.7131 28.2985C12.1545 27.1025 12.6947 25.9453 13.3281 24.8389L14.7024 25.6258ZM12.2482 32.2743C12.1381 32.8573 12.0523 33.4447 11.9909 34.0349L10.4155 33.8702C10.482 33.2345 10.5739 32.6036 10.6926 31.979L12.2482 32.2743Z" fill="#002350"/>
<path fill-rule="evenodd" clip-rule="evenodd" d="M27.494 22.3531C29.3189 21.5972 31.2749 21.2083 33.2502 21.2083C33.4601 21.2083 33.6615 21.2917 33.81 21.4402C33.9584 21.5887 34.0418 21.79 34.0418 22C34.0418 22.21 33.9584 22.4113 33.81 22.5598C33.6615 22.7083 33.4601 22.7917 33.2502 22.7917C29.6808 22.7917 26.2576 24.2096 23.7337 26.7335C21.2098 29.2574 19.7918 32.6806 19.7918 36.25C19.7918 36.46 19.7084 36.6613 19.56 36.8098C19.4115 36.9583 19.2101 37.0417 19.0002 37.0417C18.7902 37.0417 18.5888 36.9583 18.4404 36.8098C18.2919 36.6613 18.2085 36.46 18.2085 36.25C18.2084 33.275 19.0906 30.3668 20.7434 27.8932C22.3962 25.4195 24.7454 23.4916 27.494 22.3531Z" fill="#002350"/>
</svg>
