<svg width="422" height="317" viewBox="0 0 422 317" fill="none" xmlns="http://www.w3.org/2000/svg">
<path d="M158.303 92.3138C158.303 102.806 154.135 112.869 146.716 120.289C139.296 127.708 129.234 131.876 118.741 131.876C108.248 131.876 98.1854 127.708 90.766 120.289C83.3466 112.869 79.1784 102.806 79.1784 92.3138C79.1784 81.8212 83.3466 71.7583 90.766 64.3389C98.1854 56.9195 108.248 52.7513 118.741 52.7513C129.234 52.7513 139.296 56.9195 146.716 64.3389C154.135 71.7583 158.303 81.8212 158.303 92.3138Z" fill="#5B5B5B"/>
<path d="M39.5625 0C29.0699 0 19.007 4.16818 11.5876 11.5876C4.16818 19.007 0 29.0699 0 39.5625L0 276.938C0 287.43 4.16818 297.493 11.5876 304.912C19.007 312.332 29.0699 316.5 39.5625 316.5H382.438C392.93 316.5 402.993 312.332 410.412 304.912C417.832 297.493 422 287.43 422 276.938V39.5625C422 29.0699 417.832 19.007 410.412 11.5876C402.993 4.16818 392.93 0 382.438 0H39.5625ZM382.438 26.375C385.935 26.375 389.289 27.7644 391.762 30.2375C394.236 32.7107 395.625 36.065 395.625 39.5625V197.813L296.059 146.46C293.586 145.221 290.786 144.792 288.055 145.232C285.323 145.672 282.8 146.96 280.841 148.913L182.99 246.765L112.832 200.028C110.299 198.342 107.261 197.583 104.232 197.881C101.204 198.179 98.3717 199.515 96.216 201.663L26.4277 263.75V277.993C26.3962 277.642 26.3786 277.29 26.375 276.938V39.5625C26.375 36.065 27.7644 32.7107 30.2375 30.2375C32.7107 27.7644 36.065 26.375 39.5625 26.375H382.438Z" fill="#5B5B5B"/>
</svg>
