<svg width="65" height="65" viewBox="0 0 65 65" fill="none" xmlns="http://www.w3.org/2000/svg">
<path d="M50.7812 20.3125L54.017 26.4062L60.9375 27.2472L55.8594 31.8236L56.875 38.5938L50.7812 34.7852L44.6875 38.5938L45.7031 31.8236L40.625 27.2472L47.7344 26.4062L50.7812 20.3125Z" fill="#002350"/>
<path d="M44.6875 60.9375H40.625V50.7812C40.6218 48.0886 39.5507 45.5072 37.6467 43.6033C35.7428 41.6993 33.1614 40.6282 30.4688 40.625H18.2812C15.5886 40.6282 13.0072 41.6993 11.1033 43.6033C9.19929 45.5072 8.12823 48.0886 8.125 50.7812V60.9375H4.0625V50.7812C4.0668 47.0115 5.56623 43.3974 8.23183 40.7318C10.8974 38.0662 14.5115 36.5668 18.2812 36.5625H30.4688C34.2385 36.5668 37.8526 38.0662 40.5182 40.7318C43.1838 43.3974 44.6832 47.0115 44.6875 50.7812V60.9375Z" fill="#002350"/>
<path d="M24.375 8.125C26.3837 8.125 28.3473 8.72065 30.0175 9.83664C31.6877 10.9526 32.9895 12.5388 33.7582 14.3946C34.5269 16.2504 34.728 18.2925 34.3361 20.2626C33.9442 22.2328 32.9769 24.0424 31.5566 25.4628C30.1362 26.8832 28.3265 27.8505 26.3564 28.2424C24.3863 28.6342 22.3442 28.4331 20.4884 27.6644C18.6326 26.8957 17.0464 25.5939 15.9304 23.9238C14.8144 22.2536 14.2188 20.29 14.2188 18.2813C14.2188 15.5876 15.2888 13.0044 17.1935 11.0997C19.0981 9.19503 21.6814 8.125 24.375 8.125ZM24.375 4.0625C21.5628 4.0625 18.8138 4.89642 16.4755 6.45879C14.1372 8.02117 12.3148 10.2418 11.2386 12.84C10.1624 15.4381 9.88083 18.297 10.4295 21.0552C10.9781 23.8134 12.3323 26.3469 14.3208 28.3354C16.3094 30.324 18.8429 31.6782 21.6011 32.2268C24.3592 32.7754 27.2181 32.4938 29.8163 31.4177C32.4144 30.3415 34.6351 28.519 36.1975 26.1808C37.7598 23.8425 38.5938 21.0935 38.5938 18.2813C38.5938 14.5102 37.0957 10.8936 34.4292 8.22708C31.7626 5.56054 28.146 4.0625 24.375 4.0625Z" fill="#002350"/>
</svg>
