<svg width="59" height="55" viewBox="0 0 59 55" fill="none" xmlns="http://www.w3.org/2000/svg">
<path d="M58.6459 41.0417L45.1042 54.5834L35.6251 45.1042L39.6876 41.0417L45.1042 46.4584L54.5834 36.9792L58.6459 41.0417ZM30.4792 48.8959C29.3959 49.1667 28.5834 49.1667 27.5001 49.1667C15.5834 49.1667 5.83341 39.4167 5.83341 27.5C5.83341 15.5834 15.5834 5.83335 27.5001 5.83335C39.4167 5.83335 49.1667 15.5834 49.1667 27.5C49.1667 28.5834 49.1667 29.3959 48.8959 30.4792C50.7917 30.75 52.4167 31.2917 54.0417 32.1042C54.3126 30.4792 54.5834 29.125 54.5834 27.5C54.5834 12.6042 42.3959 0.416687 27.5001 0.416687C12.6042 0.416687 0.416748 12.6042 0.416748 27.5C0.416748 42.3959 12.6042 54.5834 27.5001 54.5834C29.1251 54.5834 30.7501 54.3125 32.1042 54.0417C31.2917 52.6875 30.7501 50.7917 30.4792 48.8959ZM37.2501 33.1875L28.8542 28.3125V13.9584H24.7917V30.2084L34.2709 35.8959C35.0834 34.8125 36.1667 34 37.2501 33.1875Z" fill="#002350"/>
</svg>
