<svg width="38" height="38" viewBox="0 0 38 38" fill="none" xmlns="http://www.w3.org/2000/svg">
<path d="M16.5834 32.25C20.0594 32.2493 23.4352 31.0856 26.1733 28.9443L34.7822 37.5532L37.5512 34.7841L28.9424 26.1752C31.0848 23.4368 32.2492 20.0602 32.25 16.5833C32.25 7.94513 25.2216 0.916668 16.5834 0.916668C7.94515 0.916668 0.916687 7.94513 0.916687 16.5833C0.916687 25.2215 7.94515 32.25 16.5834 32.25ZM16.5834 4.83333C23.0635 4.83333 28.3334 10.1032 28.3334 16.5833C28.3334 23.0635 23.0635 28.3333 16.5834 28.3333C10.1032 28.3333 4.83335 23.0635 4.83335 16.5833C4.83335 10.1032 10.1032 4.83333 16.5834 4.83333Z" fill="black"/>
</svg>
